<?xml version="1.0" standalone="no"?>
<!DOCTYPE svg PUBLIC "-//W3C//DTD SVG 20010904//EN"
 "http://www.w3.org/TR/2001/REC-SVG-20010904/DTD/svg10.dtd">
<svg version="1.0" xmlns="http://www.w3.org/2000/svg"
 width="27.000000pt" height="20.000000pt" viewBox="0 0 27.000000 20.000000"
 preserveAspectRatio="xMidYMid meet">

<g transform="translate(0.000000,20.000000) scale(0.100000,-0.100000)"
fill="#000000" stroke="none">
<path d="M73 181 c-17 -11 -34 -29 -38 -41 -5 -17 -10 -19 -21 -9 -24 20 -15
-5 16 -47 16 -21 30 -47 30 -57 0 -22 27 -34 43 -18 14 14 60 14 74 0 16 -16
43 -4 43 20 0 10 11 29 25 42 30 29 31 49 5 72 -11 9 -17 23 -14 32 4 11 0 15
-17 15 -13 0 -44 3 -69 6 -34 4 -53 0 -77 -15z m91 -7 c29 -11 17 -20 -29 -19
-43 0 -52 4 -38 18 8 9 46 9 67 1z"/>
</g>
</svg>
