<?xml version="1.0" standalone="no"?>
<!DOCTYPE svg PUBLIC "-//W3C//DTD SVG 20010904//EN"
 "http://www.w3.org/TR/2001/REC-SVG-20010904/DTD/svg10.dtd">
<svg version="1.0" xmlns="http://www.w3.org/2000/svg"
 width="18.000000pt" height="26.000000pt" viewBox="0 0 18.000000 26.000000"
 preserveAspectRatio="xMidYMid meet">

<g transform="translate(0.000000,26.000000) scale(0.100000,-0.100000)"
fill="#000000" stroke="none">
<path d="M0 212 c0 -26 4 -52 9 -58 6 -5 11 -40 13 -79 2 -54 6 -70 18 -70 12
0 16 16 18 70 2 39 7 74 13 79 12 13 12 106 0 106 -6 0 -12 -19 -14 -42 l-4
-43 -1 43 c-1 23 -6 42 -11 42 -6 0 -12 -19 -14 -42 l-4 -43 -1 43 c-3 58 -22
53 -22 -6z"/>
<path d="M127 254 c-11 -11 -8 -134 3 -134 5 0 10 -26 12 -57 2 -44 7 -58 18
-58 13 0 15 21 15 125 0 118 -1 125 -20 128 -12 2 -24 0 -28 -4z"/>
</g>
</svg>
