<?xml version="1.0" standalone="no"?>
<!DOCTYPE svg PUBLIC "-//W3C//DTD SVG 20010904//EN"
 "http://www.w3.org/TR/2001/REC-SVG-20010904/DTD/svg10.dtd">
<svg version="1.0" xmlns="http://www.w3.org/2000/svg"
 width="24.000000pt" height="26.000000pt" viewBox="0 0 24.000000 26.000000"
 preserveAspectRatio="xMidYMid meet">

<g transform="translate(0.000000,26.000000) scale(0.100000,-0.100000)"
fill="#000000" stroke="none">
<path d="M72 249 c-29 -11 -20 -29 16 -30 27 0 27 0 4 -10 -22 -8 -22 -29 -1
-29 6 0 8 4 5 9 -3 5 4 11 16 15 27 7 15 22 -22 28 -23 4 -23 5 10 15 20 6 26
11 15 11 -11 1 -30 -3 -43 -9z"/>
<path d="M0 92 c0 -40 5 -73 12 -80 7 -7 40 -12 77 -12 51 0 70 4 86 20 11 10
30 28 43 40 27 25 28 54 2 80 -17 17 -33 20 -120 20 l-100 0 0 -68z m197 -9
c-16 -16 -17 -15 -17 17 0 32 1 33 17 17 16 -16 16 -18 0 -34z"/>
</g>
</svg>
